<svg width="21" height="21" viewBox="0 0 21 21" fill="none" xmlns="http://www.w3.org/2000/svg">
<path d="M18.9653 14.6521V17.1994C18.9663 17.4359 18.9178 17.6699 18.8231 17.8866C18.7283 18.1033 18.5894 18.2978 18.4151 18.4577C18.2409 18.6175 18.0352 18.7392 17.8112 18.815C17.5871 18.8908 17.3498 18.9189 17.1143 18.8976C14.5014 18.6137 11.9916 17.7209 9.7865 16.2909C7.73492 14.9872 5.99554 13.2478 4.69188 11.1962C3.25688 8.98111 2.36385 6.4591 2.08514 3.83452C2.06392 3.59972 2.09183 3.36307 2.16708 3.13964C2.24233 2.91621 2.36328 2.7109 2.52223 2.53677C2.68118 2.36265 2.87464 2.22353 3.0903 2.12827C3.30596 2.03301 3.53909 1.9837 3.77485 1.98348H6.32216C6.73424 1.97943 7.13373 2.12535 7.44617 2.39405C7.75862 2.66275 7.96269 3.0359 8.02037 3.44394C8.12788 4.25913 8.32728 5.05955 8.61474 5.82992C8.72898 6.13383 8.75371 6.46412 8.68598 6.78166C8.61826 7.09919 8.46094 7.39066 8.23264 7.62152L7.15428 8.69988C8.36303 10.8257 10.1231 12.5858 12.2489 13.7945L13.3273 12.7161C13.5581 12.4878 13.8496 12.3305 14.1671 12.2628C14.4847 12.1951 14.815 12.2198 15.1189 12.334C15.8892 12.6215 16.6897 12.8209 17.5048 12.9284C17.9173 12.9866 18.294 13.1944 18.5633 13.5122C18.8326 13.83 18.9756 14.2357 18.9653 14.6521Z" stroke="#FFEE00" stroke-width="1.85259" stroke-linecap="round" stroke-linejoin="round"/>
</svg>
