<svg width="47" height="55" viewBox="0 0 47 55" fill="none" xmlns="http://www.w3.org/2000/svg">
<path d="M0 0H47V41.3974L23.5 54.9371L0 41.3974V0Z" fill="#FFEE00"/>
<path fill-rule="evenodd" clip-rule="evenodd" d="M8.76712 21.9963V37.0923H10.8681H12.9691L12.9749 26.6522L12.9806 16.2121L13.0832 16.8087C13.2191 17.599 15.912 33.8484 16.1824 35.5101C16.2985 36.2234 16.407 36.8712 16.4233 36.9497L16.4531 37.0923H18.7014H20.9498L20.9797 36.9497C21.0048 36.8299 21.4094 34.1764 21.5749 33.046C21.6021 32.8605 21.8356 31.3198 22.0937 29.6221C22.3518 27.9245 22.5867 26.3721 22.6156 26.1724C22.6445 25.9726 22.8898 24.3502 23.1607 22.567C23.4316 20.7837 23.7646 18.5897 23.9009 17.6915L24.1485 16.0583L24.1615 26.5753L24.1747 37.0923H26.5608H28.947L28.9502 32.4624L28.9533 27.8324L29.2485 27.2827C29.4108 26.9804 29.7303 26.3804 29.9584 25.9493C30.1866 25.5183 30.3888 25.182 30.4078 25.2021C30.4268 25.2221 30.5173 25.437 30.6089 25.6795C30.7005 25.9221 30.8051 26.1905 30.8415 26.2761C30.8779 26.3617 31.1107 26.9687 31.3589 27.6249C31.607 28.2811 31.8398 28.8881 31.876 28.9737C31.9123 29.0593 32.0068 29.3044 32.0859 29.5184C32.1651 29.7324 32.3066 30.1059 32.4003 30.3484C32.8043 31.3939 33.5515 33.3449 33.8506 34.1354C34.0288 34.6062 34.2798 35.2598 34.4084 35.5879C34.537 35.916 34.7188 36.3888 34.8124 36.6384L34.9825 37.0923H37.4377C38.7881 37.0923 39.8929 37.0801 39.8929 37.0653C39.8929 37.0354 39.2166 35.3088 38.2115 32.7731C37.8524 31.8668 37.5585 31.1137 37.5585 31.0995C37.5585 31.0852 37.5144 30.9746 37.4604 30.8536C37.4065 30.7327 37.2995 30.4703 37.2226 30.2706C37.1458 30.0709 37.0533 29.8374 37.0171 29.7518C36.981 29.6662 36.7739 29.141 36.5571 28.5846C36.3402 28.0282 35.8219 26.7093 35.4054 25.6536C34.9888 24.5979 34.5889 23.5824 34.5167 23.397C34.4444 23.2115 34.3549 22.9897 34.3178 22.9041C34.1472 22.511 33.3394 20.4097 33.3409 20.3629C33.3425 20.3137 35.6722 15.5414 37.963 10.8948C39.0425 8.70522 39.8929 6.95356 39.8929 6.9199C39.8929 6.90853 38.8152 6.90532 37.4979 6.91274L35.1028 6.92622L34.492 8.22313C34.1561 8.93643 33.7427 9.81185 33.5733 10.1685C33.4039 10.5251 33.0132 11.3539 32.7051 12.0101C32.3969 12.6663 31.9886 13.5301 31.7977 13.9295C31.6068 14.329 31.1881 15.2161 30.8672 15.9008C30.5464 16.5856 30.1164 17.496 29.9117 17.924C29.707 18.352 29.4121 18.9755 29.2563 19.3096L28.973 19.9171L28.9598 13.4083L28.9466 6.89956L25.51 6.91289L22.0734 6.92622L22.0131 7.34123C21.9309 7.90679 20.377 18.2021 20.1496 19.6878C20.0491 20.344 19.8995 21.3362 19.8169 21.8926C19.3885 24.7813 18.9294 27.7956 18.9004 27.9102C18.8798 27.9915 18.7641 27.41 18.5904 26.3539C18.0576 23.1134 17.638 20.5463 17.1449 17.509C16.8716 15.8256 16.5445 13.818 16.4182 13.0476C16.2918 12.2773 16.0245 10.6315 15.8241 9.39035C15.6237 8.14921 15.4476 7.08123 15.4326 7.01701L15.4053 6.90029H12.0862H8.76712V21.9963Z" fill="#353A40"/>
</svg>
