<svg width="44" height="44" viewBox="0 0 44 44" fill="none" xmlns="http://www.w3.org/2000/svg">
<path d="M7.33332 5.5H36.6667C37.6391 5.5 38.5717 5.88631 39.2594 6.57394C39.947 7.26158 40.3333 8.19421 40.3333 9.16667V20.1667C40.3333 25.029 38.4018 29.6921 34.9636 33.1303C31.5254 36.5685 26.8623 38.5 22 38.5C19.5924 38.5 17.2084 38.0258 14.9841 37.1045C12.7598 36.1831 10.7388 34.8327 9.03637 33.1303C5.5982 29.6921 3.66666 25.029 3.66666 20.1667V9.16667C3.66666 8.19421 4.05296 7.26158 4.7406 6.57394C5.42823 5.88631 6.36086 5.5 7.33332 5.5V5.5Z" stroke="#1F1C0C" stroke-width="4" stroke-linecap="round" stroke-linejoin="round"/>
<path d="M14.6667 18.3334L22 25.6667L29.3333 18.3334" stroke="#1F1C0C" stroke-width="4" stroke-linecap="round" stroke-linejoin="round"/>
</svg>
