<svg width="40" height="40" viewBox="0 0 40 40" fill="none" xmlns="http://www.w3.org/2000/svg">
<path d="M23.95 10.55C23.6141 10.8927 23.4259 11.3535 23.4259 11.8334C23.4259 12.3133 23.6141 12.774 23.95 13.1167L26.8833 16.05C27.226 16.386 27.6868 16.5741 28.1667 16.5741C28.6466 16.5741 29.1073 16.386 29.45 16.05L36.3617 9.13838C37.2835 11.1756 37.5627 13.4453 37.1618 15.6451C36.761 17.845 35.6993 19.8704 34.1182 21.4516C32.5371 23.0327 30.5116 24.0944 28.3118 24.4952C26.1119 24.896 23.8422 24.6169 21.805 23.695L9.13668 36.3634C8.40733 37.0927 7.41813 37.5025 6.38668 37.5025C5.35523 37.5025 4.36602 37.0927 3.63668 36.3634C2.90733 35.634 2.49759 34.6448 2.49759 33.6134C2.49759 32.5819 2.90733 31.5927 3.63668 30.8634L16.305 18.195C15.3831 16.1579 15.104 13.8881 15.5048 11.6883C15.9057 9.48844 16.9674 7.463 18.5485 5.88187C20.1296 4.30074 22.1551 3.23902 24.3549 2.83821C26.5547 2.43739 28.8245 2.71651 30.8617 3.63838L23.9683 10.5317L23.95 10.55Z" stroke="#1F1C0C" stroke-width="4" stroke-linecap="round" stroke-linejoin="round"/>
</svg>
