<svg width="44" height="45" viewBox="0 0 44 45" fill="none" xmlns="http://www.w3.org/2000/svg">
<g clip-path="url(#clip0_1213_1023)">
<path d="M29.3333 6H1.83334V29.8333H29.3333V6Z" stroke="#353A40" stroke-width="4" stroke-linecap="round" stroke-linejoin="round"/>
<path d="M29.3333 15.1667H36.6667L42.1667 20.6667V29.8334H29.3333V15.1667Z" stroke="#353A40" stroke-width="4" stroke-linecap="round" stroke-linejoin="round"/>
<path d="M10.0833 39C12.6146 39 14.6667 36.948 14.6667 34.4166C14.6667 31.8853 12.6146 29.8333 10.0833 29.8333C7.55203 29.8333 5.5 31.8853 5.5 34.4166C5.5 36.948 7.55203 39 10.0833 39Z" stroke="#353A40" stroke-width="4" stroke-linecap="round" stroke-linejoin="round"/>
<path d="M33.9167 39C36.448 39 38.5 36.948 38.5 34.4166C38.5 31.8853 36.448 29.8333 33.9167 29.8333C31.3854 29.8333 29.3333 31.8853 29.3333 34.4166C29.3333 36.948 31.3854 39 33.9167 39Z" stroke="#353A40" stroke-width="4" stroke-linecap="round" stroke-linejoin="round"/>
</g>
<defs>
<clipPath id="clip0_1213_1023">
<rect width="44" height="44" fill="white" transform="translate(0 0.5)"/>
</clipPath>
</defs>
</svg>
