<svg width="282" height="488" viewBox="0 0 282 488" fill="none" xmlns="http://www.w3.org/2000/svg">
<path d="M3 481.568V484.568H6H46.5H87H89.998L90 481.57L90.111 317.473L90.2014 182.571C102.918 244.852 141.541 434.945 146 457.286C148.225 468.433 150.338 478.735 150.678 480.068L150.679 480.07L151.253 482.312L151.83 484.568H154.159H197.5H240.841H243.168L243.747 482.314L244.323 480.072L244.323 480.071C244.842 478.049 252.669 436.174 255.844 418.498C256.366 415.593 260.863 391.392 265.84 364.702C270.814 338.028 275.345 313.609 275.906 310.454L275.906 310.453C276.46 307.33 281.184 281.848 286.408 253.808C290.99 229.214 296.495 199.65 299.549 183.235L299.752 316.267L300.005 481.573L300.01 484.568H303.005H349.002H395H397.997L398 481.57L398.061 408.797L398.12 336.921L403.316 329.031L403.317 329.031C406.45 324.272 412.612 314.835 417.012 308.056C419.119 304.81 421.097 301.931 422.604 299.875C423.133 300.941 423.72 302.165 424.313 303.443C426.075 307.248 428.12 311.529 428.858 312.946L428.859 312.947C429.519 314.212 433.966 323.66 438.771 334.022C443.533 344.291 448.06 353.92 448.799 355.343C449.457 356.61 451.249 360.397 452.775 363.761L452.775 363.761C454.31 367.141 457.044 373.027 458.856 376.852L458.856 376.852C466.642 393.28 481.042 423.939 486.804 436.354C490.241 443.761 495.086 454.048 497.572 459.221L497.572 459.221C500.046 464.368 503.543 471.783 505.338 475.687L508.618 482.821L509.421 484.568H511.344H558.672C571.693 484.568 583.534 484.52 592.124 484.443C596.417 484.404 599.907 484.358 602.329 484.307C603.536 484.281 604.497 484.254 605.165 484.225C605.492 484.211 605.787 484.194 606.017 484.174C606.118 484.165 606.285 484.149 606.458 484.119C606.522 484.108 606.732 484.07 606.98 483.983C607.084 483.947 607.388 483.836 607.722 483.602C607.943 483.446 609 482.662 609 481.142C609 480.79 608.936 480.517 608.921 480.455C608.896 480.346 608.87 480.257 608.854 480.206C608.843 480.172 608.832 480.138 608.821 480.107C608.8 480.045 608.78 479.991 608.766 479.953C608.719 479.83 608.663 479.695 608.607 479.565C608.493 479.298 608.332 478.938 608.132 478.499C607.729 477.616 607.137 476.348 606.373 474.728C604.844 471.485 602.605 466.796 599.763 460.881C594.079 449.05 585.974 432.297 576.286 412.366C572.827 405.248 569.682 398.734 567.404 393.973C566.264 391.591 565.344 389.654 564.71 388.301C564.392 387.623 564.151 387.102 563.991 386.748C563.942 386.639 563.903 386.553 563.874 386.487C563.869 386.468 563.864 386.449 563.859 386.432C563.835 386.354 563.813 386.287 563.795 386.234C563.737 386.067 563.669 385.902 563.608 385.76C563.484 385.47 563.32 385.121 563.139 384.751C562.772 384.001 562.278 383.051 561.741 382.069C560.742 380.242 558.708 376.177 557.238 373.064C555.756 369.922 553.953 366.209 553.228 364.81C552.559 363.52 548.596 355.324 544.403 346.55L541.696 347.844L544.403 346.55C540.218 337.799 530.226 317.062 522.195 300.468C514.163 283.87 506.459 267.918 505.071 265.012L505.071 265.012C503.675 262.091 501.927 258.556 501.178 257.15C499.576 254.139 494.896 244.413 490.584 235.267C488.436 230.712 486.395 226.333 484.895 223.051C484.144 221.408 483.534 220.052 483.115 219.092C483.072 218.992 483.031 218.898 482.993 218.809C483.315 218.237 483.759 217.466 484.319 216.501C485.63 214.245 487.554 210.975 490.005 206.836C494.906 198.56 501.899 186.833 510.274 172.845C527.022 144.871 549.287 107.863 571.364 71.3486C581.771 54.1373 591.075 38.6443 597.779 27.3857C601.131 21.7575 603.836 17.1816 605.705 13.9765C606.638 12.3759 607.37 11.1058 607.871 10.2134C608.119 9.77057 608.323 9.40034 608.469 9.12153C608.539 8.98666 608.614 8.8404 608.677 8.70371C608.706 8.6394 608.754 8.5341 608.799 8.41092C608.822 8.35031 608.859 8.24607 608.894 8.11601L608.894 8.11518C608.917 8.03104 609 7.72195 609 7.31964C609 6.34253 608.542 5.65317 608.215 5.29518C607.904 4.95434 607.587 4.7659 607.433 4.68192C607.12 4.51118 606.848 4.437 606.768 4.41545C606.562 4.35958 606.388 4.33649 606.335 4.32944C606.19 4.31018 606.047 4.2999 605.952 4.29382C605.741 4.28024 605.463 4.26942 605.146 4.26006C604.501 4.24102 603.569 4.22461 602.393 4.21054C600.034 4.18234 596.632 4.1629 592.445 4.1527C584.068 4.13229 572.518 4.14883 559.817 4.20715L513.649 4.41915L511.927 4.42706L511.065 5.91865L499.291 26.3034L501.889 27.8038L499.291 26.3035C492.817 37.5143 484.849 51.2701 481.587 56.8711C478.318 62.4832 470.783 75.514 464.842 85.8301C458.904 96.1417 451.037 109.711 447.363 115.98C443.676 122.269 435.601 136.221 429.414 146.987L432.015 148.481L429.414 146.987C423.232 157.746 414.948 172.048 411.008 178.764C407.108 185.412 401.51 195.06 398.472 200.37L398.246 109.297L397.992 6.99255L397.985 3.99052L394.983 4.00002L328.737 4.20957L262.491 4.41913L259.986 4.42705L259.547 6.89255L258.384 13.4157C256.801 22.2898 226.85 184.099 222.466 207.451C220.53 217.771 217.644 233.371 216.051 242.122L216.051 242.122C211.923 264.82 207.647 288.012 204.333 305.752C202.982 312.985 201.792 319.309 200.837 324.324C200.092 320.924 199.241 316.858 198.3 312.189C188.03 261.257 179.943 220.91 170.437 173.173L167.495 173.759L170.437 173.173C165.168 146.713 158.864 115.155 156.427 103.043C153.992 90.9391 148.84 65.0742 144.978 45.5675L144.978 45.5674C143.046 35.8103 141.23 26.7325 139.861 19.9661C138.517 13.3233 137.559 8.67793 137.371 8.0207C137.371 8.02058 137.371 8.02046 137.371 8.02033L136.846 6.18607L136.224 4.01142H133.962H69.981H6H3V7.01142V244.29V481.568Z" fill="#FFEE00" stroke="#FFEE00" stroke-width="6"/>
</svg>
