<svg width="32" height="32" viewBox="0 0 32 32" fill="none" xmlns="http://www.w3.org/2000/svg">
<path d="M18.9121 3.02295H8.55468C7.86794 3.02295 7.20933 3.29575 6.72373 3.78135C6.23814 4.26695 5.96533 4.92556 5.96533 5.6123V26.3271C5.96533 27.0138 6.23814 27.6724 6.72373 28.158C7.20933 28.6436 7.86794 28.9164 8.55468 28.9164H24.0908C24.7775 28.9164 25.4361 28.6436 25.9217 28.158C26.4073 27.6724 26.6801 27.0138 26.6801 26.3271V10.791L18.9121 3.02295Z" stroke="#353A40" stroke-width="2.82474" stroke-linecap="round" stroke-linejoin="round"/>
<path d="M18.912 3.02295V10.791H26.68" stroke="#353A40" stroke-width="2.82474" stroke-linecap="round" stroke-linejoin="round"/>
<path d="M21.5013 17.2646H11.1439" stroke="#353A40" stroke-width="2.82474" stroke-linecap="round" stroke-linejoin="round"/>
<path d="M21.5013 22.4429H11.1439" stroke="#353A40" stroke-width="2.82474" stroke-linecap="round" stroke-linejoin="round"/>
<path d="M13.7333 12.0854H12.4386H11.1439" stroke="#1E266D" stroke-width="1.41237" stroke-linecap="round" stroke-linejoin="round"/>
</svg>
