<svg width="32" height="32" viewBox="0 0 32 32" fill="none" xmlns="http://www.w3.org/2000/svg">
<g clip-path="url(#clip0_1223_2260)">
<path d="M16.3227 20.312C18.4678 20.312 20.2068 18.5731 20.2068 16.428C20.2068 14.2829 18.4678 12.5439 16.3227 12.5439C14.1777 12.5439 12.4387 14.2829 12.4387 16.428C12.4387 18.5731 14.1777 20.312 16.3227 20.312Z" stroke="#353A40" stroke-width="2.82474" stroke-linecap="round" stroke-linejoin="round"/>
<path d="M25.9033 20.3124C25.7309 20.7029 25.6795 21.1361 25.7557 21.5561C25.8318 21.9761 26.0321 22.3636 26.3305 22.6687L26.4082 22.7464C26.649 22.9869 26.8399 23.2725 26.9703 23.5868C27.1006 23.9012 27.1676 24.2381 27.1676 24.5784C27.1676 24.9187 27.1006 25.2556 26.9703 25.57C26.8399 25.8843 26.649 26.1699 26.4082 26.4104C26.1677 26.6511 25.8822 26.8421 25.5678 26.9724C25.2535 27.1027 24.9165 27.1698 24.5762 27.1698C24.236 27.1698 23.899 27.1027 23.5847 26.9724C23.2703 26.8421 22.9848 26.6511 22.7443 26.4104L22.6666 26.3327C22.3615 26.0342 21.9739 25.834 21.5539 25.7578C21.134 25.6817 20.7008 25.7331 20.3103 25.9054C19.9274 26.0695 19.6008 26.3421 19.3708 26.6894C19.1407 27.0367 19.0173 27.4438 19.0156 27.8604V28.0805C19.0156 28.7672 18.7428 29.4258 18.2572 29.9114C17.7716 30.397 17.113 30.6698 16.4263 30.6698C15.7395 30.6698 15.0809 30.397 14.5953 29.9114C14.1097 29.4258 13.8369 28.7672 13.8369 28.0805V27.964C13.8269 27.5354 13.6882 27.1198 13.4388 26.7712C13.1895 26.4225 12.841 26.157 12.4387 26.009C12.0482 25.8367 11.615 25.7853 11.195 25.8614C10.7751 25.9376 10.3875 26.1378 10.0824 26.4362L10.0047 26.5139C9.76422 26.7547 9.47864 26.9457 9.1643 27.076C8.84996 27.2063 8.51302 27.2733 8.17274 27.2733C7.83246 27.2733 7.49551 27.2063 7.18117 27.076C6.86683 26.9457 6.58126 26.7547 6.34077 26.5139C6.10003 26.2734 5.90904 25.9879 5.77873 25.6735C5.64842 25.3592 5.58135 25.0222 5.58135 24.682C5.58135 24.3417 5.64842 24.0047 5.77873 23.6904C5.90904 23.3761 6.10003 23.0905 6.34077 22.85L6.41845 22.7723C6.71692 22.4672 6.91714 22.0796 6.9933 21.6597C7.06945 21.2397 7.01804 20.8065 6.8457 20.416C6.68158 20.0331 6.40908 19.7065 6.06173 19.4765C5.71438 19.2464 5.30735 19.123 4.89074 19.1213H4.67065C3.98391 19.1213 3.3253 18.8485 2.8397 18.3629C2.3541 17.8773 2.0813 17.2187 2.0813 16.532C2.0813 15.8453 2.3541 15.1866 2.8397 14.701C3.3253 14.2155 3.98391 13.9426 4.67065 13.9426H4.78717C5.2157 13.9326 5.6313 13.7939 5.97995 13.5445C6.3286 13.2952 6.59416 12.9467 6.74212 12.5444C6.91446 12.1539 6.96587 11.7207 6.88972 11.3008C6.81357 10.8808 6.61335 10.4932 6.31488 10.1881L6.2372 10.1104C5.99645 9.86993 5.80546 9.58436 5.67516 9.27002C5.54485 8.95567 5.47778 8.61873 5.47778 8.27845C5.47778 7.93817 5.54485 7.60123 5.67516 7.28688C5.80546 6.97254 5.99645 6.68697 6.2372 6.44649C6.47768 6.20574 6.76326 6.01475 7.0776 5.88444C7.39194 5.75414 7.72888 5.68707 8.06916 5.68707C8.40944 5.68707 8.74639 5.75414 9.06073 5.88444C9.37507 6.01475 9.66065 6.20574 9.90113 6.44649L9.97881 6.52417C10.2839 6.82264 10.6715 7.02286 11.0915 7.09901C11.5114 7.17516 11.9446 7.12375 12.3351 6.95141H12.4387C12.8216 6.78729 13.1482 6.51479 13.3782 6.16744C13.6083 5.82009 13.7317 5.41306 13.7334 4.99645V4.77636C13.7334 4.08962 14.0062 3.43101 14.4918 2.94541C14.9774 2.45982 15.636 2.18701 16.3227 2.18701C17.0094 2.18701 17.6681 2.45982 18.1537 2.94541C18.6392 3.43101 18.9121 4.08962 18.9121 4.77636V4.89288C18.9137 5.30949 19.0372 5.71652 19.2672 6.06387C19.4972 6.41121 19.8238 6.68372 20.2067 6.84784C20.5972 7.02018 21.0304 7.07159 21.4504 6.99543C21.8704 6.91928 22.2579 6.71906 22.563 6.42059L22.6407 6.34291C22.8812 6.10217 23.1668 5.91118 23.4811 5.78087C23.7955 5.65056 24.1324 5.58349 24.4727 5.58349C24.813 5.58349 25.1499 5.65056 25.4642 5.78087C25.7786 5.91118 26.0642 6.10217 26.3046 6.34291C26.5454 6.58339 26.7364 6.86897 26.8667 7.18331C26.997 7.49765 27.0641 7.8346 27.0641 8.17488C27.0641 8.51516 26.997 8.8521 26.8667 9.16644C26.7364 9.48078 26.5454 9.76636 26.3046 10.0068L26.227 10.0845C25.9285 10.3896 25.7283 10.7772 25.6521 11.1972C25.576 11.6172 25.6274 12.0503 25.7997 12.4408V12.5444C25.9638 12.9273 26.2363 13.2539 26.5837 13.4839C26.931 13.714 27.3381 13.8374 27.7547 13.8391H27.9748C28.6615 13.8391 29.3201 14.1119 29.8057 14.5975C30.2913 15.0831 30.5641 15.7417 30.5641 16.4284C30.5641 17.1152 30.2913 17.7738 29.8057 18.2594C29.3201 18.745 28.6615 19.0178 27.9748 19.0178H27.8582C27.4416 19.0194 27.0346 19.1429 26.6873 19.3729C26.3399 19.6029 26.0674 19.9295 25.9033 20.3124V20.3124Z" stroke="#353A40" stroke-width="2.82474" stroke-linecap="round" stroke-linejoin="round"/>
</g>
<defs>
<clipPath id="clip0_1223_2260">
<rect width="31.0722" height="31.0722" fill="white" transform="translate(0.786621 0.89209)"/>
</clipPath>
</defs>
</svg>
